<svg width="1200" height="630" viewBox="0 0 1200 630" fill="none" xmlns="http://www.w3.org/2000/svg" role="img" aria-labelledby="title desc">
  <title id="title">Panos Khan — AI &amp; Digital Transformation Consultant</title>
  <desc id="desc">Social preview image for Panos Khan official website.</desc>

  <defs>
    <linearGradient id="bg" x1="0" y1="0" x2="1200" y2="630" gradientUnits="userSpaceOnUse">
      <stop stop-color="#070B14"/>
      <stop offset="1" stop-color="#111C33"/>
    </linearGradient>
    <linearGradient id="accent" x1="140" y1="120" x2="1020" y2="510" gradientUnits="userSpaceOnUse">
      <stop stop-color="#00E5FF"/>
      <stop offset="1" stop-color="#7C3AED"/>
    </linearGradient>
    <filter id="blur" x="-20%" y="-20%" width="140%" height="140%">
      <feGaussianBlur stdDeviation="40"/>
    </filter>
  </defs>

  <rect width="1200" height="630" fill="url(#bg)"/>

  <g opacity="0.18">
    <path d="M0 120H1200" stroke="#00E5FF"/>
    <path d="M0 180H1200" stroke="#00E5FF"/>
    <path d="M0 240H1200" stroke="#00E5FF"/>
    <path d="M0 300H1200" stroke="#00E5FF"/>
    <path d="M0 360H1200" stroke="#00E5FF"/>
    <path d="M0 420H1200" stroke="#00E5FF"/>
    <path d="M0 480H1200" stroke="#00E5FF"/>
    <path d="M0 540H1200" stroke="#00E5FF"/>

    <path d="M120 0V630" stroke="#7C3AED"/>
    <path d="M240 0V630" stroke="#7C3AED"/>
    <path d="M360 0V630" stroke="#7C3AED"/>
    <path d="M480 0V630" stroke="#7C3AED"/>
    <path d="M600 0V630" stroke="#7C3AED"/>
    <path d="M720 0V630" stroke="#7C3AED"/>
    <path d="M840 0V630" stroke="#7C3AED"/>
    <path d="M960 0V630" stroke="#7C3AED"/>
    <path d="M1080 0V630" stroke="#7C3AED"/>
  </g>

  <circle cx="180" cy="110" r="120" fill="#00E5FF" opacity="0.25" filter="url(#blur)"/>
  <circle cx="1040" cy="140" r="130" fill="#7C3AED" opacity="0.22" filter="url(#blur)"/>
  <circle cx="900" cy="520" r="140" fill="#22D3EE" opacity="0.16" filter="url(#blur)"/>

  <rect x="78" y="68" width="1044" height="494" rx="28" fill="#0B1428" fill-opacity="0.72" stroke="url(#accent)" stroke-opacity="0.55"/>

  <text x="120" y="170" fill="#9EDFFF" font-family="Inter, Segoe UI, Arial, sans-serif" font-size="30" font-weight="700" letter-spacing="3">OFFICIAL PROFESSIONAL WEBSITE</text>

  <text x="120" y="260" fill="#E6EDF7" font-family="Inter, Segoe UI, Arial, sans-serif" font-size="68" font-weight="800">
    <tspan x="120" dy="0">Panos Khan</tspan>
  </text>

  <text x="120" y="338" fill="url(#accent)" font-family="Inter, Segoe UI, Arial, sans-serif" font-size="40" font-weight="700">
    <tspan x="120" dy="0">AI &amp; Digital Transformation Consultant</tspan>
  </text>

  <text x="120" y="412" fill="#DBE8FF" font-family="Inter, Segoe UI, Arial, sans-serif" font-size="28" font-weight="400">
    <tspan x="120" dy="0">Web Engineering • SEO Architecture • Performance Marketing</tspan>
  </text>

  <g>
    <rect x="120" y="458" width="190" height="48" rx="24" fill="#101A31" stroke="#24324D"/>
    <text x="154" y="489" fill="#D7E8FF" font-family="Inter, Segoe UI, Arial, sans-serif" font-size="22" font-weight="600">Based in Greece</text>

    <rect x="328" y="458" width="164" height="48" rx="24" fill="#101A31" stroke="#24324D"/>
    <text x="362" y="489" fill="#D7E8FF" font-family="Inter, Segoe UI, Arial, sans-serif" font-size="22" font-weight="600">Bilingual Site</text>

    <rect x="510" y="458" width="252" height="48" rx="24" fill="#101A31" stroke="#24324D"/>
    <text x="544" y="489" fill="#D7E8FF" font-family="Inter, Segoe UI, Arial, sans-serif" font-size="22" font-weight="600">Professional Credentials</text>
  </g>
</svg>
